Coordinates
version=1
nRows=20
nColumns=38
inDegrees=no

Units are S.I. units (second, meters, Newtons, ...)
If the header above contains a line with 'inDegrees', this indicates whether rotational values are in degrees (yes) or radians (no).

endheader
time	pelvis_tilt	pelvis_list	pelvis_rotation	pelvis_tx	pelvis_ty	pelvis_tz	hip_flexion_r	hip_adduction_r	hip_rotation_r	knee_angle_r	ankle_angle_r	subtalar_angle_r	mtp_angle_r	hip_flexion_l	hip_adduction_l	hip_rotation_l	knee_angle_l	ankle_angle_l	subtalar_angle_l	mtp_angle_l	lumbar_extension	lumbar_bending	lumbar_rotation	arm_flex_r	arm_add_r	arm_rot_r	elbow_flex_r	pro_sup_r	wrist_flex_r	wrist_dev_r	arm_flex_l	arm_add_l	arm_rot_l	elbow_flex_l	pro_sup_l	wrist_flex_l	wrist_dev_l
2.16	2.46759	1.30622	-0.781658	0.648246	1.42058	0.938066	0.0351912	0.215801	-0.0201841	0.29997	-0.343127	0	0	-0.264159	-0.285185	-0.0925488	0.969874	-0.348597	0	0	-0.406327	0.260707	-0.102529	-0.0404486	-0.620655	0.983091	0.841269	0.498468	0	0	-0.294619	-0.154036	-0.182922	0.751636	1.5708	0	0
2.17	2.46113	1.29998	-0.779805	0.649328	1.43046	0.938338	0.0170945	0.224077	-0.0232761	0.292983	-0.336303	0	0	-0.234762	-0.295046	-0.0840655	1.03466	-0.368498	0	0	-0.409882	0.264809	-0.0960004	-0.0447061	-0.627652	0.98098	0.85325	0.495152	0	0	-0.301424	-0.153504	-0.185234	0.762196	1.5708	0	0
2.18	2.46068	1.29187	-0.783722	0.650277	1.44002	0.938839	-0.00463263	0.232153	-0.0217464	0.283788	-0.331301	0	0	-0.207724	-0.304472	-0.0759494	1.09658	-0.3889	0	0	-0.416706	0.269303	-0.0884586	-0.0486462	-0.635312	0.978329	0.865894	0.491618	0	0	-0.307092	-0.153088	-0.186874	0.77336	1.5708	0	0
2.19	2.46865	1.28231	-0.797292	0.651285	1.44913	0.93964	-0.0294564	0.239999	-0.0141045	0.275586	-0.326726	0	0	-0.184425	-0.31209	-0.0700086	1.15432	-0.408161	0	0	-0.427922	0.272348	-0.0788295	-0.0512727	-0.643377	0.97599	0.879247	0.488114	0	0	-0.311906	-0.153086	-0.188086	0.786384	1.5708	0	0
2.2	2.4807	1.27313	-0.813202	0.652297	1.4581	0.94066	-0.0556049	0.247242	-0.00698558	0.267015	-0.321526	0	0	-0.161454	-0.318424	-0.0637557	1.20738	-0.417013	0	0	-0.439484	0.274091	-0.0704699	-0.0537844	-0.648991	0.973136	0.889906	0.483873	0	0	-0.315533	-0.154161	-0.188292	0.798192	1.5708	0	0
2.21	2.49495	1.2657	-0.83017	0.653358	1.46696	0.941756	-0.0813413	0.252278	-0.000389934	0.257905	-0.315378	0	0	-0.137376	-0.322602	-0.0573759	1.25593	-0.411012	0	0	-0.449712	0.273815	-0.0635723	-0.0560011	-0.65155	0.970164	0.89672	0.478988	0	0	-0.317898	-0.156243	-0.187697	0.807727	1.5708	0	0
2.22	2.51193	1.25869	-0.849346	0.65427	1.47563	0.943109	-0.107919	0.255583	0.00340618	0.24676	-0.310255	0	0	-0.114191	-0.324781	-0.0514984	1.29922	-0.392126	0	0	-0.460039	0.272524	-0.0570717	-0.0569942	-0.652467	0.96861	0.899986	0.474496	0	0	-0.31815	-0.158235	-0.186502	0.814231	1.5708	0	0
2.23	2.52938	1.25339	-0.869645	0.655301	1.48412	0.944406	-0.132856	0.257116	0.00728471	0.235561	-0.307351	0	0	-0.0910444	-0.324782	-0.0466502	1.33757	-0.363702	0	0	-0.469225	0.269284	-0.0508098	-0.0564494	-0.652131	0.96901	0.90108	0.470976	0	0	-0.317311	-0.160704	-0.184626	0.818791	1.5708	0	0
2.24	2.54953	1.24861	-0.893288	0.656369	1.49238	0.945845	-0.15765	0.256679	0.0107518	0.223704	-0.306557	0	0	-0.0684576	-0.32249	-0.0434991	1.37155	-0.325915	0	0	-0.478936	0.264295	-0.0443899	-0.0547048	-0.650786	0.970394	0.900699	0.466461	0	0	-0.315177	-0.163752	-0.181565	0.821927	1.5708	0	0
2.25	2.56857	1.24557	-0.916284	0.657439	1.50053	0.947239	-0.179851	0.254453	0.0136276	0.212864	-0.307495	0	0	-0.0448416	-0.31786	-0.0411827	1.3994	-0.296553	0	0	-0.486817	0.258159	-0.0387789	-0.0522854	-0.648248	0.972128	0.898464	0.461616	0	0	-0.312079	-0.166313	-0.179104	0.822742	1.5708	0	0
2.26	2.58898	1.24408	-0.941525	0.658543	1.50859	0.948591	-0.200476	0.250909	0.015744	0.202728	-0.308785	0	0	-0.0210338	-0.310533	-0.0397425	1.42098	-0.274335	0	0	-0.493583	0.250167	-0.0334161	-0.0493875	-0.644987	0.974365	0.895231	0.456359	0	0	-0.308715	-0.168667	-0.177195	0.822955	1.5708	0	0
2.27	2.61113	1.24416	-0.969475	0.659703	1.51654	0.949881	-0.219469	0.245524	0.0187525	0.194119	-0.308855	0	0	0.00249765	-0.300847	-0.0391419	1.43597	-0.256784	0	0	-0.499102	0.240209	-0.0286148	-0.0458811	-0.641839	0.976939	0.892357	0.451929	0	0	-0.305363	-0.170793	-0.17624	0.822866	1.5708	0	0
2.28	2.63704	1.24311	-1.0007	0.66058	1.52439	0.951409	-0.238511	0.238309	0.0204285	0.189335	-0.307961	0	0	0.0227989	-0.28958	-0.0388665	1.44324	-0.243655	0	0	-0.505916	0.230247	-0.0250497	-0.0417232	-0.63966	0.979445	0.89059	0.44957	0	0	-0.301653	-0.172407	-0.175547	0.822148	1.5708	0	0
2.29	2.66486	1.24266	-1.03427	0.661484	1.53214	0.952812	-0.25713	0.229127	0.0242514	0.184225	-0.306294	0	0	0.0416361	-0.276816	-0.0396369	1.44437	-0.228946	0	0	-0.512421	0.218962	-0.0217388	-0.0376349	-0.637048	0.981397	0.888646	0.447198	0	0	-0.298415	-0.174289	-0.175114	0.822436	1.5708	0	0
2.3	2.69165	1.24311	-1.06744	0.662461	1.53981	0.953926	-0.274608	0.219704	0.0297637	0.178549	-0.303514	0	0	0.0598379	-0.26389	-0.0421041	1.44055	-0.209553	0	0	-0.517802	0.206902	-0.0183218	-0.0335494	-0.634136	0.983211	0.886424	0.444099	0	0	-0.295766	-0.176504	-0.174537	0.823538	1.5708	0	0
2.31	2.71836	1.24376	-1.09928	0.663224	1.54733	0.955008	-0.29129	0.20968	0.0327439	0.172127	-0.301306	0	0	0.0780828	-0.250117	-0.0438757	1.43213	-0.190787	0	0	-0.52284	0.195505	-0.0160814	-0.0286926	-0.631611	0.985976	0.884019	0.441995	0	0	-0.291958	-0.178751	-0.173242	0.822911	1.5708	0	0
2.32	2.74508	1.24423	-1.12956	0.663808	1.55473	0.956029	-0.307387	0.200116	0.0321348	0.166008	-0.299467	0	0	0.0959343	-0.236035	-0.0449959	1.4191	-0.173155	0	0	-0.527781	0.184861	-0.0151649	-0.0234527	-0.6288	0.989044	0.880986	0.440053	0	0	-0.287887	-0.181387	-0.171441	0.822233	1.5708	0	0
2.33	2.76583	1.24571	-1.15359	0.664381	1.56214	0.956623	-0.321113	0.192193	0.0320139	0.160612	-0.297118	0	0	0.114262	-0.223729	-0.0466238	1.4016	-0.154843	0	0	-0.530571	0.175624	-0.0144697	-0.0180553	-0.626547	0.993108	0.878315	0.438519	0	0	-0.284825	-0.184281	-0.16966	0.822682	1.5708	0	0
2.34	2.78411	1.24759	-1.17446	0.664898	1.56951	0.957054	-0.334211	0.185105	0.0317217	0.154041	-0.295249	0	0	0.132148	-0.212156	-0.0483584	1.37898	-0.137183	0	0	-0.532449	0.167321	-0.0142351	-0.0126658	-0.624273	0.997317	0.875726	0.43682	0	0	-0.281732	-0.187359	-0.167749	0.823069	1.5708	0	0
2.35	2.80127	1.25	-1.19348	0.665344	1.57683	0.957357	-0.346712	0.178514	0.0309574	0.146028	-0.294176	0	0	0.149158	-0.201184	-0.0503068	1.35029	-0.121997	0	0	-0.533713	0.159592	-0.0144542	-0.00726707	-0.622146	1.00166	0.873363	0.435213	0	0	-0.27844	-0.190258	-0.165901	0.823559	1.57016	0	0
